# xmcd
#
# Track frame offsets:
#	150
#	19036
#	36813
#	57104
#	77207
#	94818
#	111154
#	132098
#	153573
#	170966
#	188220
#	201855
#	231998
#	247565
#	265919
#	281210
#	300028
#	317179
#
# Disc length: 4638 seconds
#
# Revision: 0
# Processed by: cddbd v1.4PL0 Copyright (c) Steve Scherf et al.
# Submitted via: dBpowerAMP V4.0
#
DISCID=f3121c12
DTITLE=Dido - No Angel and Bonus
DYEAR=1999
DGENRE=Vocal
TTITLE0=Here With Me
TTITLE1=Hunter
TTITLE2=Don't Think Of Me
TTITLE3=My Lover's Gpne
TTITLE4=All You Want
TTITLE5=Thank You
TTITLE6=Honestly OK
TTITLE7=Slide
TTITLE8=Isobel
TTITLE9=I'm No Angel
TTITLE10=My Life
TTITLE11=Take My Hands
TTITLE12=It's So Bad (S&S remix without Eminem)
TTITLE13=Christmas Day
TTITLE14=Flowerstand
TTITLE15=Don't Leave Home (Live Electronic Mix)
TTITLE16=Touch My Skin (Techno Remix by Deroga)
TTITLE17=Aria (The Talented Mr. Ripley Theme)
EXTD=
EXTT0=
EXTT1=
EXTT2=
EXTT3=
EXTT4=
EXTT5=
EXTT6=
EXTT7=
EXTT8=
EXTT9=
EXTT10=
EXTT11=
EXTT12=
EXTT13=
EXTT14=
EXTT15=
EXTT16=
EXTT17=
PLAYORDER=
